<svg id="SvgjsSvg1012" width="288" height="288" xmlns="http://www.w3.org/2000/svg" version="1.1" xmlns:xlink="http://www.w3.org/1999/xlink" xmlns:svgjs="http://svgjs.com/svgjs"><defs id="SvgjsDefs1013"></defs><g id="SvgjsG1014"><svg xmlns="http://www.w3.org/2000/svg" enable-background="new 0 0 480 480" viewBox="0 0 480 480" width="288" height="288"><path d="M348.583 81.448l-76.584-53.616V0h-16v24h-32V0h-16v27.832l-76.584 53.6c-3.627 2.523-4.523 7.508-2.001 11.135 1.499 2.155 3.959 3.438 6.585 3.433h208c4.418-.003 7.997-3.588 7.994-8.006C351.991 85.387 350.718 82.944 348.583 81.448zM161.375 80l57.144-40h42.96l57.144 40H161.375zM103.999 312h-16c-13.255 0-24 10.745-24 24v8c0 13.255 10.745 24 24 24h16c13.255 0 24-10.745 24-24v-8C127.999 322.745 117.254 312 103.999 312zM111.999 344c0 4.418-3.582 8-8 8h-16c-4.418 0-8-3.582-8-8v-8c0-4.418 3.582-8 8-8h16c4.418 0 8 3.582 8 8V344zM391.999 312h-16c-13.255 0-24 10.745-24 24v8c0 13.255 10.745 24 24 24h16c13.255 0 24-10.745 24-24v-8C415.999 322.745 405.254 312 391.999 312zM399.999 344c0 4.418-3.582 8-8 8h-16c-4.418 0-8-3.582-8-8v-8c0-4.418 3.582-8 8-8h16c4.418 0 8 3.582 8 8V344zM311.999 312h-144c-13.255 0-24 10.745-24 24v8c0 13.255 10.745 24 24 24h144c13.255 0 24-10.745 24-24v-8C335.999 322.745 325.254 312 311.999 312zM319.999 344c0 4.418-3.582 8-8 8h-144c-4.418 0-8-3.582-8-8v-8c0-4.418 3.582-8 8-8h144c4.418 0 8 3.582 8 8V344z" fill="#56c232" class="color000 svgShape"></path><path d="M422.847,288.52l-17.736-7.096l-53.056-72.952c-7.542-10.334-19.559-16.452-32.352-16.472H160.295
			c-12.793,0.02-24.81,6.138-32.352,16.472l-53.056,72.952l-17.736,7.096c-15.225,6.031-25.204,20.768-25.152,37.144V464
			c0,8.837,7.163,16,16,16h48c8.837,0,16-7.163,16-16v-32h256v32c0,8.837,7.163,16,16,16h48c8.837,0,16-7.163,16-16V325.664
			C448.051,309.288,438.072,294.551,422.847,288.52z M140.879,217.888c4.525-6.203,11.738-9.876,19.416-9.888h159.408
			c7.678,0.012,14.891,3.685,19.416,9.888L384.287,280H95.711L140.879,217.888z M95.999,464h-48v-33.368
			c0.672,0.24,1.4,0.368,2.104,0.544c0.464,0.12,0.912,0.28,1.392,0.368c1.483,0.294,2.992,0.447,4.504,0.456h40V464z M431.999,464
			h-48v-32h40c1.512-0.009,3.021-0.162,4.504-0.456c0.48-0.088,0.928-0.248,1.4-0.368c0.696-0.176,1.424-0.304,2.096-0.544V464z
			 M431.999,408c0,4.418-3.582,8-8,8h-320h-48c-4.418,0-8-3.582-8-8v-8h384V408z M431.999,384h-384v-58.336
			c-0.034-9.824,5.953-18.665,15.088-22.28L81.535,296h316.928l18.448,7.384c9.135,3.615,15.122,12.456,15.088,22.28V384z" fill="#56c232" class="color000 svgShape"></path><rect width="16" height="24" x="231.999" y="112" fill="#56c232" class="color000 svgShape"></rect><rect width="16" height="24" x="231.999" y="152" fill="#56c232" class="color000 svgShape"></rect><rect width="24" height="16" x="140.399" y="113.277" transform="rotate(-50.676 152.403 121.275)" fill="#56c232" class="color000 svgShape"></rect><rect width="24" height="16" x="115.061" y="144.239" transform="rotate(-50.669 127.054 152.235)" fill="#56c232" class="color000 svgShape"></rect><rect width="24" height="16" x="89.71" y="175.178" transform="rotate(-50.669 101.703 183.173)" fill="#56c232" class="color000 svgShape"></rect><rect width="24" height="16" x="64.347" y="206.153" transform="rotate(-50.669 76.341 214.146)" fill="#56c232" class="color000 svgShape"></rect><rect width="24" height="16" x="184.634" y="115.545" transform="rotate(-73.722 196.642 123.546)" fill="#56c232" class="color000 svgShape"></rect><rect width="24" height="16" x="173.421" y="153.899" transform="rotate(-73.698 185.416 161.897)" fill="#56c232" class="color000 svgShape"></rect><rect width="24" height="15.992" x="93.017" y="110.498" transform="rotate(-42.686 105.007 118.487)" fill="#56c232" class="color000 svgShape"></rect><rect width="24" height="15.992" x="63.604" y="137.642" transform="rotate(-42.686 75.596 145.629)" fill="#56c232" class="color000 svgShape"></rect><rect width="24" height="15.992" x="34.218" y="164.743" transform="rotate(-42.686 46.211 172.727)" fill="#56c232" class="color000 svgShape"></rect><rect width="24" height="15.992" x="4.822" y="191.862" transform="rotate(-42.686 16.817 199.843)" fill="#56c232" class="color000 svgShape"></rect><rect width="15.992" height="24" x="319.604" y="110.965" transform="rotate(-39.307 327.578 122.96)" fill="#56c232" class="color000 svgShape"></rect><rect width="16" height="24" x="344.916" y="141.866" transform="rotate(-39.322 352.896 153.855)" fill="#56c232" class="color000 svgShape"></rect><rect width="16" height="24" x="370.31" y="172.805" transform="rotate(-39.326 378.341 184.817)" fill="#56c232" class="color000 svgShape"></rect><rect width="16" height="24" x="395.603" y="203.784" transform="rotate(-39.326 403.637 215.799)" fill="#56c232" class="color000 svgShape"></rect><rect width="16" height="24" x="275.353" y="113.291" transform="rotate(-16.3 283.352 125.291)" fill="#56c232" class="color000 svgShape"></rect><rect width="16" height="24" x="286.571" y="151.573" transform="rotate(-16.301 294.556 163.598)" fill="#56c232" class="color000 svgShape"></rect><rect width="15.992" height="24" x="366.98" y="108.133" transform="rotate(-47.31 374.971 120.156)" fill="#56c232" class="color000 svgShape"></rect><rect width="15.992" height="24" x="396.395" y="135.268" transform="rotate(-47.302 404.415 147.276)" fill="#56c232" class="color000 svgShape"></rect><rect width="15.992" height="24" x="425.765" y="162.401" transform="rotate(-47.302 433.788 174.41)" fill="#56c232" class="color000 svgShape"></rect><rect width="15.992" height="24" x="455.182" y="189.507" transform="rotate(-47.31 463.166 201.536)" fill="#56c232" class="color000 svgShape"></rect></svg></g></svg>