<svg id="SvgjsSvg1001" width="288" height="288" xmlns="http://www.w3.org/2000/svg" version="1.1" xmlns:xlink="http://www.w3.org/1999/xlink" xmlns:svgjs="http://svgjs.com/svgjs"><defs id="SvgjsDefs1002"></defs><g id="SvgjsG1008" transform="matrix(0.9167,0,0,0.9167,11.995199682235722,11.995449332006274)"><svg xmlns="http://www.w3.org/2000/svg" width="288" height="288" enable-background="new 0 0 24 24" viewBox="0 0 24 24"><path d="m21.511 3.471-9.25-3.424c-.168-.062-.354-.062-.521 0l-9.25 3.424c-.295.108-.49.389-.49.703v8.001c0 9.103 9.71 11.774 9.809 11.8.062.016.127.025.191.025s.129-.009.191-.025c.099-.026 9.809-2.698 9.809-11.8v-8.001c0-.314-.195-.595-.489-.703zm-9.511 15.029c-3.584 0-6.5-2.916-6.5-6.5s2.916-6.5 6.5-6.5 6.5 2.916 6.5 6.5-2.916 6.5-6.5 6.5z" fill="#56c232" class="color000 svgShape"></path><path d="m13.75 14.75c-.256 0-.512-.098-.707-.293l-1.75-1.75c-.188-.187-.293-.441-.293-.707v-2.75c0-.553.448-1 1-1s1 .447 1 1v2.336l1.457 1.457c.391.391.391 1.023 0 1.414-.195.195-.451.293-.707.293z" fill="#56c232" class="color000 svgShape"></path></svg></g></svg>